<svg xmlns="http://www.w3.org/2000/svg"
 xmlns:xlink="http://www.w3.org/1999/xlink"
 width="942px" height="780px"  viewBox="0 0 942 780">
 <linearGradient id="linear-gradient">
	 <stop offset="0%" stop-color="#ff8f5a"/>
	 <stop offset="100%" stop-color="#ff2f96"/>
 </linearGradient>
<path fill-rule="evenodd"  fill="url(#linear-gradient)"
 d="M406.5204,52.40657 C513.261,1.9514923 613.9938,1.7958984 698.2119,39.67073 C782.64746,77.23811 850.56836,152.83575 896.70337,246.78543 C940.9728,341.66873 940.92615,443.58386 904.77075,526.0272 C868.11475,609.6997 807.1046,672.7823 723.96606,717.8038 C679.93555,740.47253 633.6542,756.0024 574.8179,765.535 C516.7572,774.9289 446.14148,778.3254 371.32483,773.4795 C222.8512,764.15826 56.449463,720.3976 21.357788,621.6897 C1.4714355,572.6766 13.954346,516.4916 38.678833,459.95013 C63.80896,403.32605 101.180664,346.34567 140.41895,293.8348 C180.06287,241.24152 221.57324,193.11789 264.30908,152.30554 C307.45044,111.410416 351.81702,77.82657 406.5204,52.40657 C406.5204,52.40657 406.5204,52.40657 406.5204,52.40657 Z"/>
</svg>