<svg display="none" xmlns="http://www.w3.org/2000/svg">
  <symbol id="vk" viewBox="0 0 511.962 511.962">
    <g>
      <path d="M507.399,370.471c-1.376-2.304-9.888-20.8-50.848-58.816c-42.88-39.808-37.12-33.344,14.528-102.176
      c31.456-41.92,44.032-67.52,40.096-78.464c-3.744-10.432-26.88-7.68-26.88-7.68l-76.928,0.448c0,0-5.696-0.768-9.952,1.76
      c-4.128,2.496-6.784,8.256-6.784,8.256s-12.192,32.448-28.448,60.032c-34.272,58.208-48,61.28-53.6,57.664
      c-13.024-8.416-9.76-33.856-9.76-51.904c0-56.416,8.544-79.936-16.672-86.016c-8.384-2.016-14.528-3.36-35.936-3.584
      c-27.456-0.288-50.72,0.096-63.872,6.528c-8.768,4.288-15.52,13.856-11.392,14.4c5.088,0.672,16.608,3.104,22.72,11.424
      c7.904,10.72,7.616,34.848,7.616,34.848s4.544,66.4-10.592,74.656c-10.4,5.664-24.64-5.888-55.2-58.72
      c-15.648-27.04-27.488-56.96-27.488-56.96s-2.272-5.568-6.336-8.544c-4.928-3.616-11.84-4.768-11.84-4.768l-73.152,0.448
      c0,0-10.976,0.32-15.008,5.088c-3.584,4.256-0.288,13.024-0.288,13.024s57.28,133.984,122.112,201.536
      c59.488,61.92,127.008,57.856,127.008,57.856h30.592c0,0,9.248-1.024,13.952-6.112c4.352-4.672,4.192-13.44,4.192-13.44
      s-0.608-41.056,18.464-47.104c18.784-5.952,42.912,39.68,68.48,57.248c19.328,13.28,34.016,10.368,34.016,10.368l68.384-0.96
      C488.583,400.807,524.359,398.599,507.399,370.471z"/>
    </g>
  </symbol>
  <symbol id="facebook" viewBox="-110 1 511 511.99896">
    <g>
      <path d="m207.363281 126.734375c.699219-.789063 3.96875-3.367187 16.808594-3.367187l42.097656-.015626c13.695313 0 24.832031-11.140624 24.832031-24.835937v-73.578125c0-13.671875-11.121093-24.8125-24.792968-24.835938l-62.53125-.101562c-38.59375 0-71.402344 12.730469-94.878906 36.820312-23.371094 23.980469-35.726563 57.457032-35.726563 96.804688v39.683594h-47.835937c-13.695313 0-24.835938 11.140625-24.835938 24.835937v79.242188c0 13.695312 11.140625 24.835937 24.835938 24.835937h47.835937v184.941406c0 13.695313 11.140625 24.835938 24.835937 24.835938h81.992188c13.695312 0 24.835938-11.140625 24.835938-24.835938v-184.9375h58.472656c13.695312 0 24.832031-11.144531 24.832031-24.832031l.03125-79.246093c0-8.996094-4.894531-17.320313-12.777344-21.722657-3.652343-2.039062-7.902343-3.117187-12.285156-3.117187h-58.273437v-31.351563c0-10.21875 1.375-13.917969 2.527343-15.222656zm0 0"/>
    </g>
  </symbol>
  <symbol id="telegram" viewBox="0 0 24 24">
    <g>
      <path d="m9.417 15.181-.397 5.584c.568 0 .814-.244 1.109-.537l2.663-2.545 5.518 4.041c1.012.564 1.725.267 1.998-.931l3.622-16.972.001-.001c.321-1.496-.541-2.081-1.527-1.714l-21.29 8.151c-1.453.564-1.431 1.374-.247 1.741l5.443 1.693 12.643-7.911c.595-.394 1.136-.176.691.218z"/>
    </g>
  </symbol>
  <symbol id="instagram" viewBox="0 0 512.00096 512.00096">
    <g>
      <path d="m373.40625 0h-234.8125c-76.421875 0-138.59375 62.171875-138.59375 138.59375v234.816406c0 76.417969 62.171875 138.589844 138.59375 138.589844h234.816406c76.417969 0 138.589844-62.171875 138.589844-138.589844v-234.816406c0-76.421875-62.171875-138.59375-138.59375-138.59375zm-117.40625 395.996094c-77.195312 0-139.996094-62.800782-139.996094-139.996094s62.800782-139.996094 139.996094-139.996094 139.996094 62.800782 139.996094 139.996094-62.800782 139.996094-139.996094 139.996094zm143.34375-246.976563c-22.8125 0-41.367188-18.554687-41.367188-41.367187s18.554688-41.371094 41.367188-41.371094 41.371094 18.558594 41.371094 41.371094-18.558594 41.367187-41.371094 41.367187zm0 0"/><path d="m256 146.019531c-60.640625 0-109.980469 49.335938-109.980469 109.980469 0 60.640625 49.339844 109.980469 109.980469 109.980469 60.644531 0 109.980469-49.339844 109.980469-109.980469 0-60.644531-49.335938-109.980469-109.980469-109.980469zm0 0"/><path d="m399.34375 96.300781c-6.257812 0-11.351562 5.09375-11.351562 11.351563 0 6.257812 5.09375 11.351562 11.351562 11.351562 6.261719 0 11.355469-5.089844 11.355469-11.351562 0-6.261719-5.09375-11.351563-11.355469-11.351563zm0 0"/>
    </g>
  </symbol>
</svg>